<?xml version="1.0" standalone="no"?>
<!DOCTYPE svg PUBLIC "-//W3C//DTD SVG 20010904//EN"
 "http://www.w3.org/TR/2001/REC-SVG-20010904/DTD/svg10.dtd">
<svg version="1.0" xmlns="http://www.w3.org/2000/svg"
 width="1535.000000pt" height="1535.000000pt" viewBox="0 0 1535.000000 1535.000000"
 preserveAspectRatio="xMidYMid meet">
<metadata>
Created by potrace 1.14, written by Peter Selinger 2001-2017
</metadata>
<g transform="translate(0.000000,1535.000000) scale(0.100000,-0.100000)"
fill="#000000" stroke="none">
<path d="M7348 15345 c-1 -1 -65 -6 -141 -10 -76 -3 -145 -8 -155 -10 -9 -1
-57 -6 -107 -10 -49 -4 -92 -8 -95 -10 -3 -1 -41 -6 -85 -10 -43 -3 -82 -8
-85 -10 -3 -1 -30 -6 -60 -9 -71 -8 -288 -43 -320 -51 -3 0 -27 -5 -55 -10
-27 -5 -52 -9 -55 -10 -8 -2 -72 -14 -100 -20 -89 -17 -388 -92 -538 -135
-270 -77 -671 -218 -840 -296 -29 -13 -55 -24 -57 -24 -2 0 -33 -13 -67 -29
-35 -15 -92 -41 -128 -57 -190 -83 -732 -376 -809 -435 -13 -11 -30 -19 -37
-19 -8 0 -14 -4 -14 -10 0 -5 -4 -10 -10 -10 -37 0 -734 -505 -841 -609 -9 -9
-38 -34 -64 -56 -27 -22 -59 -49 -71 -60 -12 -11 -57 -51 -101 -90 -104 -93
-449 -439 -543 -545 -41 -47 -77 -87 -80 -90 -3 -3 -25 -30 -50 -60 -25 -30
-52 -62 -60 -70 -9 -8 -31 -35 -50 -60 -19 -25 -37 -47 -41 -50 -11 -10 -256
-336 -267 -357 -7 -12 -18 -27 -25 -35 -16 -16 -231 -342 -272 -413 -17 -27
-34 -57 -40 -67 -294 -481 -566 -1096 -749 -1690 -43 -138 -133 -471 -143
-527 -2 -14 -10 -54 -18 -87 -27 -117 -76 -387 -90 -494 -3 -25 -8 -56 -10
-70 -10 -56 -15 -88 -20 -153 -4 -37 -8 -77 -10 -88 -2 -10 -7 -56 -10 -102
-4 -45 -8 -93 -11 -107 -26 -167 -26 -912 1 -1230 9 -101 16 -185 20 -215 2
-16 9 -73 15 -125 6 -52 13 -106 15 -120 3 -14 7 -43 10 -65 49 -328 131 -699
226 -1020 39 -133 141 -440 175 -526 19 -47 34 -89 34 -94 0 -4 6 -21 14 -38
8 -18 32 -75 54 -127 83 -203 258 -568 349 -730 11 -19 35 -62 53 -95 18 -33
50 -89 72 -124 21 -34 38 -65 38 -67 0 -3 8 -17 18 -32 11 -15 30 -45 44 -67
86 -136 283 -429 309 -459 6 -6 28 -36 50 -66 22 -30 51 -68 63 -85 50 -64
150 -191 160 -201 6 -7 27 -31 46 -55 195 -242 602 -655 865 -879 28 -24 52
-46 55 -49 3 -3 28 -24 55 -45 28 -22 57 -47 66 -55 9 -9 29 -25 45 -36 15
-11 50 -38 78 -61 96 -76 284 -213 423 -307 180 -121 211 -141 435 -271 243
-142 268 -156 268 -149 0 3 8 -1 18 -9 16 -14 282 -147 397 -198 28 -12 74
-33 103 -46 29 -13 55 -24 57 -24 2 0 28 -11 57 -25 154 -71 601 -229 838
-295 41 -12 82 -23 90 -25 117 -34 465 -115 560 -131 14 -2 35 -7 48 -9 31 -7
237 -43 287 -50 22 -3 58 -8 80 -11 22 -3 51 -7 65 -9 27 -4 105 -14 160 -20
19 -2 69 -7 110 -11 41 -3 82 -7 90 -9 138 -26 1018 -26 1265 0 22 2 67 7 100
10 68 7 122 13 180 20 22 3 58 7 80 10 94 11 141 18 160 21 11 3 36 7 55 10
19 3 76 12 125 21 50 8 104 17 120 20 17 2 44 8 60 13 17 4 48 12 70 16 22 4
45 8 50 10 6 1 26 5 45 9 19 3 105 24 190 46 85 22 162 42 171 44 29 6 263 76
319 95 447 151 672 243 1035 420 129 64 413 216 485 260 8 5 47 28 85 51 101
60 151 91 325 208 141 94 438 311 471 344 8 7 21 18 30 23 9 5 40 29 69 54 29
25 89 76 134 114 265 226 586 544 825 821 38 44 124 146 141 169 8 10 27 33
41 50 194 234 492 674 666 981 100 176 333 631 333 650 0 2 16 38 35 79 19 42
35 79 35 82 0 3 9 24 19 47 28 61 139 347 146 377 3 8 18 56 36 105 27 78 92
280 104 325 49 175 122 469 140 565 10 51 11 53 24 117 7 29 14 69 17 88 3 19
7 46 10 60 2 14 7 41 10 60 2 19 9 58 14 85 5 28 12 75 16 105 3 30 8 62 9 70
1 8 6 44 10 80 3 36 8 76 10 90 2 14 7 61 10 105 4 44 8 93 10 108 26 210 26
1087 0 1227 -1 8 -6 58 -10 110 -4 52 -9 103 -10 112 -2 9 -7 48 -10 85 -4 37
-8 75 -10 83 -2 8 -7 38 -10 65 -4 28 -13 88 -20 135 -8 47 -17 103 -20 125
-4 22 -10 56 -15 75 -5 19 -11 51 -14 70 -7 46 -12 71 -32 155 -8 39 -19 88
-24 111 -12 57 -59 243 -71 279 -5 17 -22 77 -39 135 -55 198 -193 595 -255
735 -7 17 -30 71 -51 120 -66 160 -239 520 -307 640 -12 22 -42 76 -67 120
-62 110 -58 103 -128 220 -110 183 -449 676 -492 715 -3 3 -32 39 -65 80 -32
41 -61 77 -64 80 -4 3 -23 26 -44 52 -21 26 -43 53 -50 60 -7 7 -25 29 -41 48
-138 168 -538 570 -743 747 -11 10 -44 38 -73 63 -29 25 -58 50 -64 55 -6 6
-65 54 -131 106 -102 81 -140 110 -210 161 -5 4 -23 18 -40 31 -115 90 -518
355 -650 427 -33 18 -71 41 -85 50 -72 49 -474 253 -671 341 -333 147 -661
268 -989 363 -157 45 -207 58 -340 90 -194 46 -509 109 -605 121 -30 4 -98 15
-122 19 -22 5 -112 16 -168 21 -16 2 -57 6 -90 10 -85 10 -109 13 -205 20 -47
3 -107 8 -135 11 -56 6 -801 14 -807 9z"/>
</g>
</svg>
